<svg xmlns="http://www.w3.org/2000/svg" viewBox="0 0 128 128">
  <!-- Shield shape representing protection/health -->
  <path d="M64 8 L112 30 L112 65 C112 90 92 112 64 122 C36 112 16 90 16 65 L16 30 Z" fill="#9333ea" />
  <path d="M64 16 L104 34 L104 65 C104 86 87 105 64 114 C41 105 24 86 24 65 L24 34 Z" fill="#c99dff" />
  <!-- Skin pattern dots representing PV patches -->
  <circle cx="50" cy="52" r="6" fill="#f3e8ff" opacity="0.9" />
  <circle cx="72" cy="48" r="8" fill="#f3e8ff" opacity="0.85" />
  <circle cx="58" cy="72" r="7" fill="#f3e8ff" opacity="0.9" />
  <circle cx="78" cy="68" r="5" fill="#f3e8ff" opacity="0.85" />
  <circle cx="44" cy="66" r="4" fill="#f3e8ff" opacity="0.8" />
  <circle cx="68" cy="86" r="5" fill="#f3e8ff" opacity="0.8" />
  <!-- Small connecting patches -->
  <circle cx="62" cy="60" r="3.5" fill="#f3e8ff" opacity="0.7" />
  <circle cx="82" cy="56" r="3" fill="#f3e8ff" opacity="0.7" />
</svg>
